<?xml version="1.0" encoding="UTF-8"?>
<svg width="24px" height="24px" viewBox="0 0 24 24" version="1.1" xmlns="http://www.w3.org/2000/svg" xmlns:xlink="http://www.w3.org/1999/xlink">
    <title>68A16DC2-84BB-497C-BB0D-1DA7076D7FA7@1,5x</title>
    <defs>
        <filter id="filter-1">
            <feColorMatrix in="SourceGraphic" type="matrix" values="0 0 0 0 0.666667 0 0 0 0 0.666667 0 0 0 0 0.666667 0 0 0 1.000000 0"></feColorMatrix>
        </filter>
    </defs>
    <g id="Artboard" stroke="none" stroke-width="1" fill="none" fill-rule="evenodd">
        <g id="Login" transform="translate(-325.000000, -405.000000)">
            <g id="Rectangle-2" transform="translate(80.000000, 400.000000)" filter="url(#filter-1)">
                <g>
                    <rect id="Rectangle" stroke="#979797" x="0.5" y="0.5" width="273" height="33" rx="4"></rect>
                </g>
            </g>
            <g id="Elements-icon/ic_hidepassowrd" transform="translate(325.000000, 405.000000)">
                <g id="Group-4" transform="translate(2.000000, 4.000000)">
                    <g id="visibility" transform="translate(0.000000, 2.000000)" fill="#F18A04" fill-rule="nonzero">
                        <path d="M19.925625,5.62253906 C19.768125,5.39335938 15.983125,0.025859375 9.99980469,0.025859375 C4.865625,0.025859375 0.290625,5.36253906 0.098125,5.59003906 C-0.0326953125,5.74503906 -0.0326953125,5.97253906 0.098125,6.12835937 C0.290625,6.35585937 4.865625,11.6925391 9.99980469,11.6925391 C15.1339844,11.6925391 19.7089453,6.35585937 19.9014453,6.12835938 C20.0223047,5.98503906 20.033125,5.77753906 19.925625,5.62253906 Z M9.99980469,10.8592187 C5.88398437,10.8592187 1.970625,6.93421875 0.976484375,5.85921875 C1.96898437,4.78339844 5.87816406,0.85921875 9.99980469,0.85921875 C14.815625,0.85921875 18.2148047,4.77839844 19.0448047,5.83671875 C18.0864453,6.87753906 14.150625,10.8592187 9.99980469,10.8592187 Z" id="Shape"></path>
                        <path d="M9.99980469,2.52585938 C8.16148438,2.52585938 6.66648438,4.02085938 6.66648438,5.85917969 C6.66648438,7.6975 8.16148438,9.1925 9.99980469,9.1925 C11.838125,9.1925 13.333125,7.6975 13.333125,5.85917969 C13.333125,4.02085937 11.838125,2.52585938 9.99980469,2.52585938 Z M9.99980469,8.35921875 C8.62148438,8.35921875 7.49980469,7.23753906 7.49980469,5.85921875 C7.49980469,4.48089844 8.62148438,3.35921875 9.99980469,3.35921875 C11.378125,3.35921875 12.4998047,4.48089844 12.4998047,5.85921875 C12.4998047,7.23753906 11.378125,8.35921875 9.99980469,8.35921875 Z" id="Shape"></path>
                    </g>
                    <g id="Group-3" transform="translate(10.000000, 8.000000) rotate(-315.000000) translate(-10.000000, -8.000000) translate(9.000000, -2.000000)">
                        <rect id="Rectangle" fill="#F18A04" x="0" y="0" width="1" height="20"></rect>
                        <rect id="Rectangle-Copy-4" fill="#EBEDF8" x="1" y="0" width="1" height="20"></rect>
                    </g>
                </g>
            </g>
        </g>
    </g>
</svg>